<svg xmlns="http://www.w3.org/2000/svg" xmlns:xlink="http://www.w3.org/1999/xlink" width="151" zoomAndPan="magnify" viewBox="0 0 113.25 31.5" height="41" preserveAspectRatio="xMidYMid meet" version="1.0"><defs><g/><clipPath id="75e9b875ff"><path d="M 101 6 L 111.996094 6 L 111.996094 21 L 101 21 Z M 101 6 " clip-rule="nonzero"/></clipPath></defs><g fill="#3d3d3d" fill-opacity="1"><g transform="translate(0.837989, 20.294081)"><g><path d="M 6.53125 -13.875 C 6.195312 -13.875 5.910156 -13.753906 5.671875 -13.515625 C 5.429688 -13.285156 5.3125 -13.003906 5.3125 -12.671875 L 5.3125 -1.3125 C 5.3125 -0.976562 5.429688 -0.695312 5.671875 -0.46875 C 5.910156 -0.238281 6.195312 -0.125 6.53125 -0.125 L 6.53125 0 L 0.59375 0 L 0.59375 -0.125 C 0.925781 -0.125 1.207031 -0.238281 1.4375 -0.46875 C 1.675781 -0.695312 1.796875 -0.976562 1.796875 -1.3125 L 1.796875 -12.671875 C 1.796875 -13.003906 1.675781 -13.285156 1.4375 -13.515625 C 1.207031 -13.753906 0.925781 -13.875 0.59375 -13.875 L 0.59375 -13.984375 L 6.53125 -13.984375 Z M 6.53125 -13.875 "/></g></g></g><g fill="#3d3d3d" fill-opacity="1"><g transform="translate(6.833406, 20.294081)"><g><path d="M 9.578125 -1.09375 C 9.578125 -0.851562 9.65625 -0.640625 9.8125 -0.453125 C 9.96875 -0.273438 10.160156 -0.164062 10.390625 -0.125 L 10.390625 0 L 5.75 0 L 5.75 -0.125 C 5.976562 -0.164062 6.171875 -0.273438 6.328125 -0.453125 C 6.492188 -0.640625 6.578125 -0.851562 6.578125 -1.09375 L 6.578125 -7 C 6.578125 -7.34375 6.660156 -7.613281 6.828125 -7.8125 C 7.003906 -8.007812 7.175781 -8.195312 7.34375 -8.375 C 7.519531 -8.5625 7.609375 -8.773438 7.609375 -9.015625 C 7.609375 -9.242188 7.484375 -9.414062 7.234375 -9.53125 C 6.984375 -9.65625 6.65625 -9.71875 6.25 -9.71875 C 5.8125 -9.71875 5.421875 -9.660156 5.078125 -9.546875 C 4.734375 -9.429688 4.476562 -9.332031 4.3125 -9.25 L 4.3125 -1.09375 C 4.3125 -0.851562 4.390625 -0.640625 4.546875 -0.453125 C 4.710938 -0.273438 4.910156 -0.164062 5.140625 -0.125 L 5.140625 0 L 0.5 0 L 0.5 -0.125 C 0.726562 -0.164062 0.921875 -0.273438 1.078125 -0.453125 C 1.234375 -0.640625 1.3125 -0.851562 1.3125 -1.09375 L 1.3125 -8.21875 C 1.3125 -8.46875 1.234375 -8.679688 1.078125 -8.859375 C 0.921875 -9.046875 0.726562 -9.15625 0.5 -9.1875 L 0.5 -9.3125 L 3.921875 -9.8125 C 3.929688 -9.8125 3.9375 -9.8125 3.9375 -9.8125 C 3.945312 -9.8125 3.960938 -9.8125 3.984375 -9.8125 C 4.203125 -9.8125 4.3125 -9.695312 4.3125 -9.46875 L 4.3125 -9.390625 C 4.6875 -9.578125 5.101562 -9.726562 5.5625 -9.84375 C 6.019531 -9.957031 6.484375 -10.015625 6.953125 -10.015625 C 7.421875 -10.015625 7.851562 -9.921875 8.25 -9.734375 C 8.65625 -9.554688 8.976562 -9.269531 9.21875 -8.875 C 9.457031 -8.488281 9.578125 -7.957031 9.578125 -7.28125 Z M 9.578125 -1.09375 "/></g></g></g><g fill="#3d3d3d" fill-opacity="1"><g transform="translate(16.586067, 20.294081)"><g><path d="M 9.734375 -1.5 C 9.734375 -1.257812 9.8125 -1.046875 9.96875 -0.859375 C 10.132812 -0.671875 10.328125 -0.554688 10.546875 -0.515625 L 10.546875 -0.40625 L 7.140625 0.09375 C 7.117188 0.09375 7.101562 0.09375 7.09375 0.09375 C 7.09375 0.09375 7.085938 0.09375 7.078125 0.09375 C 6.984375 0.09375 6.898438 0.0546875 6.828125 -0.015625 C 6.765625 -0.0859375 6.734375 -0.171875 6.734375 -0.265625 L 6.734375 -0.734375 C 6.359375 -0.441406 5.953125 -0.21875 5.515625 -0.0625 C 5.085938 0.0820312 4.640625 0.128906 4.171875 0.078125 C 3.503906 0.015625 2.90625 -0.238281 2.375 -0.6875 C 1.851562 -1.132812 1.441406 -1.707031 1.140625 -2.40625 C 0.847656 -3.101562 0.703125 -3.867188 0.703125 -4.703125 C 0.703125 -5.484375 0.820312 -6.195312 1.0625 -6.84375 C 1.3125 -7.5 1.640625 -8.0625 2.046875 -8.53125 C 2.460938 -9.007812 2.925781 -9.375 3.4375 -9.625 C 3.945312 -9.882812 4.457031 -10.015625 4.96875 -10.015625 C 5.320312 -10.015625 5.65625 -9.96875 5.96875 -9.875 C 6.28125 -9.789062 6.535156 -9.695312 6.734375 -9.59375 L 6.734375 -12.390625 C 6.734375 -12.628906 6.648438 -12.84375 6.484375 -13.03125 C 6.328125 -13.21875 6.140625 -13.332031 5.921875 -13.375 L 5.921875 -13.484375 L 9.328125 -13.984375 C 9.347656 -13.984375 9.359375 -13.984375 9.359375 -13.984375 C 9.367188 -13.984375 9.378906 -13.984375 9.390625 -13.984375 C 9.617188 -13.984375 9.734375 -13.863281 9.734375 -13.625 Z M 6.078125 -0.734375 C 6.273438 -0.734375 6.492188 -0.789062 6.734375 -0.90625 L 6.734375 -9.453125 C 6.492188 -9.554688 6.273438 -9.609375 6.078125 -9.609375 C 5.640625 -9.609375 5.238281 -9.40625 4.875 -9 C 4.519531 -8.601562 4.226562 -8.070312 4 -7.40625 C 3.78125 -6.75 3.671875 -6.003906 3.671875 -5.171875 C 3.671875 -4.359375 3.78125 -3.613281 4 -2.9375 C 4.226562 -2.269531 4.519531 -1.734375 4.875 -1.328125 C 5.238281 -0.929688 5.640625 -0.734375 6.078125 -0.734375 Z M 6.078125 -0.734375 "/></g></g></g><g fill="#3d3d3d" fill-opacity="1"><g transform="translate(26.49861, 20.294081)"><g><path d="M 5.25 -10.015625 C 6.09375 -10.015625 6.859375 -9.785156 7.546875 -9.328125 C 8.234375 -8.878906 8.78125 -8.269531 9.1875 -7.5 C 9.601562 -6.738281 9.8125 -5.890625 9.8125 -4.953125 C 9.8125 -4.023438 9.601562 -3.175781 9.1875 -2.40625 C 8.78125 -1.644531 8.234375 -1.035156 7.546875 -0.578125 C 6.859375 -0.128906 6.09375 0.09375 5.25 0.09375 C 4.414062 0.09375 3.65625 -0.128906 2.96875 -0.578125 C 2.28125 -1.035156 1.726562 -1.644531 1.3125 -2.40625 C 0.90625 -3.175781 0.703125 -4.023438 0.703125 -4.953125 C 0.703125 -5.890625 0.90625 -6.738281 1.3125 -7.5 C 1.726562 -8.269531 2.28125 -8.878906 2.96875 -9.328125 C 3.65625 -9.785156 4.414062 -10.015625 5.25 -10.015625 Z M 5.25 -0.015625 C 6.28125 -0.015625 6.796875 -1.660156 6.796875 -4.953125 C 6.796875 -8.242188 6.28125 -9.890625 5.25 -9.890625 C 4.21875 -9.890625 3.703125 -8.242188 3.703125 -4.953125 C 3.703125 -1.660156 4.21875 -0.015625 5.25 -0.015625 Z M 5.25 -0.015625 "/></g></g></g><g fill="#fa440a" fill-opacity="1"><g transform="translate(35.875495, 20.294081)"><g><path d="M 8.90625 -1.5 C 8.90625 -1.257812 8.984375 -1.046875 9.140625 -0.859375 C 9.304688 -0.671875 9.503906 -0.554688 9.734375 -0.515625 L 9.734375 -0.40625 L 6.296875 0.09375 C 6.296875 0.09375 6.289062 0.09375 6.28125 0.09375 C 6.28125 0.09375 6.269531 0.09375 6.25 0.09375 C 6.15625 0.09375 6.070312 0.0546875 6 -0.015625 C 5.925781 -0.0859375 5.890625 -0.171875 5.890625 -0.265625 L 5.890625 -0.765625 C 5.648438 -0.585938 5.328125 -0.398438 4.921875 -0.203125 C 4.515625 -0.00390625 4.035156 0.09375 3.484375 0.09375 C 2.847656 0.09375 2.273438 -0.0703125 1.765625 -0.40625 C 1.265625 -0.738281 0.941406 -1.179688 0.796875 -1.734375 C 0.640625 -2.304688 0.703125 -2.863281 0.984375 -3.40625 C 1.265625 -3.957031 1.675781 -4.398438 2.21875 -4.734375 C 2.5625 -4.953125 3 -5.15625 3.53125 -5.34375 C 4.070312 -5.539062 4.632812 -5.734375 5.21875 -5.921875 C 5.800781 -6.117188 6.347656 -6.316406 6.859375 -6.515625 C 7.378906 -6.722656 7.800781 -6.953125 8.125 -7.203125 C 8.445312 -7.453125 8.609375 -7.726562 8.609375 -8.03125 C 8.609375 -8.300781 8.488281 -8.566406 8.25 -8.828125 C 8.019531 -9.097656 7.75 -9.3125 7.4375 -9.46875 C 7.050781 -9.65625 6.625 -9.78125 6.15625 -9.84375 C 5.6875 -9.914062 5.207031 -9.910156 4.71875 -9.828125 C 3.957031 -9.722656 3.578125 -9.472656 3.578125 -9.078125 C 3.578125 -8.835938 3.648438 -8.628906 3.796875 -8.453125 C 3.941406 -8.273438 4.082031 -8.085938 4.21875 -7.890625 C 4.363281 -7.703125 4.4375 -7.457031 4.4375 -7.15625 C 4.4375 -6.726562 4.28125 -6.363281 3.96875 -6.0625 C 3.664062 -5.757812 3.300781 -5.609375 2.875 -5.609375 C 2.445312 -5.609375 2.082031 -5.757812 1.78125 -6.0625 C 1.488281 -6.363281 1.34375 -6.726562 1.34375 -7.15625 C 1.34375 -7.675781 1.519531 -8.128906 1.875 -8.515625 C 2.238281 -8.910156 2.679688 -9.234375 3.203125 -9.484375 C 3.734375 -9.734375 4.234375 -9.890625 4.703125 -9.953125 C 5.765625 -10.109375 6.695312 -9.984375 7.5 -9.578125 C 7.882812 -9.390625 8.210938 -9.125 8.484375 -8.78125 C 8.765625 -8.445312 8.90625 -8.03125 8.90625 -7.53125 Z M 5.890625 -0.90625 L 5.890625 -6.03125 C 5.628906 -5.914062 5.332031 -5.753906 5 -5.546875 C 4.675781 -5.335938 4.394531 -5.054688 4.15625 -4.703125 C 3.914062 -4.347656 3.773438 -3.894531 3.734375 -3.34375 C 3.710938 -2.863281 3.753906 -2.4375 3.859375 -2.0625 C 3.960938 -1.695312 4.125 -1.398438 4.34375 -1.171875 C 4.5625 -0.929688 4.820312 -0.785156 5.125 -0.734375 C 5.425781 -0.679688 5.679688 -0.738281 5.890625 -0.90625 Z M 5.890625 -0.90625 "/></g></g></g><g fill="#fa440a" fill-opacity="1"><g transform="translate(44.968639, 20.294081)"><g><path d="M 8.40625 -2.15625 C 8.914062 -2.039062 9.367188 -1.816406 9.765625 -1.484375 C 10.160156 -1.148438 10.472656 -0.742188 10.703125 -0.265625 C 10.929688 0.210938 11.046875 0.734375 11.046875 1.296875 C 11.046875 1.953125 10.890625 2.546875 10.578125 3.078125 C 10.273438 3.609375 9.867188 4.035156 9.359375 4.359375 C 8.859375 4.679688 8.300781 4.84375 7.6875 4.84375 C 7.1875 4.84375 6.707031 4.738281 6.25 4.53125 C 5.800781 4.320312 5.4375 4.039062 5.15625 3.6875 C 4.882812 3.34375 4.75 2.972656 4.75 2.578125 C 4.75 2.148438 4.898438 1.78125 5.203125 1.46875 C 5.515625 1.164062 5.882812 1.015625 6.3125 1.015625 C 6.738281 1.015625 7.101562 1.164062 7.40625 1.46875 C 7.707031 1.78125 7.859375 2.148438 7.859375 2.578125 C 7.859375 3.015625 7.710938 3.378906 7.421875 3.671875 C 7.328125 3.765625 7.242188 3.863281 7.171875 3.96875 C 7.109375 4.082031 7.078125 4.191406 7.078125 4.296875 C 7.078125 4.578125 7.28125 4.71875 7.6875 4.71875 C 8.289062 4.71875 8.832031 4.5625 9.3125 4.25 C 9.800781 3.945312 10.191406 3.535156 10.484375 3.015625 C 10.785156 2.492188 10.9375 1.921875 10.9375 1.296875 C 10.9375 0.816406 10.820312 0.382812 10.59375 0 C 10.375 -0.382812 10.082031 -0.691406 9.71875 -0.921875 C 9.351562 -1.148438 8.945312 -1.265625 8.5 -1.265625 C 8.03125 -1.265625 7.601562 -1.140625 7.21875 -0.890625 C 6.84375 -0.640625 6.488281 -0.335938 6.15625 0.015625 C 5.820312 0.367188 5.488281 0.722656 5.15625 1.078125 C 4.820312 1.441406 4.460938 1.742188 4.078125 1.984375 C 3.691406 2.234375 3.253906 2.359375 2.765625 2.359375 C 2.296875 2.359375 1.863281 2.238281 1.46875 2 C 1.070312 1.757812 0.757812 1.429688 0.53125 1.015625 C 0.3125 0.609375 0.203125 0.15625 0.203125 -0.34375 C 0.203125 -0.957031 0.375 -1.5 0.71875 -1.96875 C 1.0625 -2.4375 1.5 -2.753906 2.03125 -2.921875 C 1.726562 -3.296875 1.488281 -3.710938 1.3125 -4.171875 C 1.144531 -4.628906 1.0625 -5.109375 1.0625 -5.609375 C 1.0625 -6.421875 1.265625 -7.160156 1.671875 -7.828125 C 2.085938 -8.492188 2.640625 -9.023438 3.328125 -9.421875 C 4.015625 -9.816406 4.773438 -10.015625 5.609375 -10.015625 C 6.296875 -10.015625 6.9375 -9.878906 7.53125 -9.609375 C 7.195312 -9.921875 6.863281 -10.320312 6.53125 -10.8125 C 6.195312 -11.300781 6.03125 -11.84375 6.03125 -12.4375 C 6.03125 -12.851562 6.179688 -13.210938 6.484375 -13.515625 C 6.796875 -13.828125 7.164062 -13.984375 7.59375 -13.984375 C 8.019531 -13.984375 8.382812 -13.828125 8.6875 -13.515625 C 8.988281 -13.210938 9.140625 -12.851562 9.140625 -12.4375 C 9.140625 -12.101562 9.039062 -11.804688 8.84375 -11.546875 C 8.644531 -11.296875 8.398438 -11.101562 8.109375 -10.96875 C 7.660156 -10.78125 7.4375 -10.53125 7.4375 -10.21875 C 7.4375 -10.039062 7.503906 -9.867188 7.640625 -9.703125 C 7.785156 -9.546875 7.957031 -9.398438 8.15625 -9.265625 C 8.78125 -8.867188 9.269531 -8.351562 9.625 -7.71875 C 9.988281 -7.09375 10.171875 -6.390625 10.171875 -5.609375 C 10.171875 -4.921875 10.015625 -4.273438 9.703125 -3.671875 C 9.390625 -3.066406 8.957031 -2.5625 8.40625 -2.15625 Z M 5.609375 -9.890625 C 4.585938 -9.890625 4.078125 -8.460938 4.078125 -5.609375 C 4.078125 -3.109375 4.476562 -1.707031 5.28125 -1.40625 C 5.5 -1.53125 5.71875 -1.644531 5.9375 -1.75 C 6.164062 -1.863281 6.382812 -1.957031 6.59375 -2.03125 C 6.976562 -2.726562 7.171875 -3.921875 7.171875 -5.609375 C 7.171875 -8.460938 6.648438 -9.890625 5.609375 -9.890625 Z M 1.4375 -1.703125 C 1.4375 -1.335938 1.566406 -1.023438 1.828125 -0.765625 C 2.085938 -0.503906 2.398438 -0.375 2.765625 -0.375 C 3.128906 -0.375 3.5 -0.46875 3.875 -0.65625 C 4.25 -0.84375 4.632812 -1.046875 5.03125 -1.265625 C 4.445312 -1.335938 3.898438 -1.515625 3.390625 -1.796875 C 2.890625 -2.078125 2.457031 -2.425781 2.09375 -2.84375 C 1.65625 -2.570312 1.4375 -2.191406 1.4375 -1.703125 Z M 1.4375 -1.703125 "/></g></g></g><g fill="#fa440a" fill-opacity="1"><g transform="translate(55.081036, 20.294081)"><g><path d="M 8.90625 -1.5 C 8.90625 -1.257812 8.984375 -1.046875 9.140625 -0.859375 C 9.304688 -0.671875 9.503906 -0.554688 9.734375 -0.515625 L 9.734375 -0.40625 L 6.296875 0.09375 C 6.296875 0.09375 6.289062 0.09375 6.28125 0.09375 C 6.28125 0.09375 6.269531 0.09375 6.25 0.09375 C 6.15625 0.09375 6.070312 0.0546875 6 -0.015625 C 5.925781 -0.0859375 5.890625 -0.171875 5.890625 -0.265625 L 5.890625 -0.765625 C 5.648438 -0.585938 5.328125 -0.398438 4.921875 -0.203125 C 4.515625 -0.00390625 4.035156 0.09375 3.484375 0.09375 C 2.847656 0.09375 2.273438 -0.0703125 1.765625 -0.40625 C 1.265625 -0.738281 0.941406 -1.179688 0.796875 -1.734375 C 0.640625 -2.304688 0.703125 -2.863281 0.984375 -3.40625 C 1.265625 -3.957031 1.675781 -4.398438 2.21875 -4.734375 C 2.5625 -4.953125 3 -5.15625 3.53125 -5.34375 C 4.070312 -5.539062 4.632812 -5.734375 5.21875 -5.921875 C 5.800781 -6.117188 6.347656 -6.316406 6.859375 -6.515625 C 7.378906 -6.722656 7.800781 -6.953125 8.125 -7.203125 C 8.445312 -7.453125 8.609375 -7.726562 8.609375 -8.03125 C 8.609375 -8.300781 8.488281 -8.566406 8.25 -8.828125 C 8.019531 -9.097656 7.75 -9.3125 7.4375 -9.46875 C 7.050781 -9.65625 6.625 -9.78125 6.15625 -9.84375 C 5.6875 -9.914062 5.207031 -9.910156 4.71875 -9.828125 C 3.957031 -9.722656 3.578125 -9.472656 3.578125 -9.078125 C 3.578125 -8.835938 3.648438 -8.628906 3.796875 -8.453125 C 3.941406 -8.273438 4.082031 -8.085938 4.21875 -7.890625 C 4.363281 -7.703125 4.4375 -7.457031 4.4375 -7.15625 C 4.4375 -6.726562 4.28125 -6.363281 3.96875 -6.0625 C 3.664062 -5.757812 3.300781 -5.609375 2.875 -5.609375 C 2.445312 -5.609375 2.082031 -5.757812 1.78125 -6.0625 C 1.488281 -6.363281 1.34375 -6.726562 1.34375 -7.15625 C 1.34375 -7.675781 1.519531 -8.128906 1.875 -8.515625 C 2.238281 -8.910156 2.679688 -9.234375 3.203125 -9.484375 C 3.734375 -9.734375 4.234375 -9.890625 4.703125 -9.953125 C 5.765625 -10.109375 6.695312 -9.984375 7.5 -9.578125 C 7.882812 -9.390625 8.210938 -9.125 8.484375 -8.78125 C 8.765625 -8.445312 8.90625 -8.03125 8.90625 -7.53125 Z M 5.890625 -0.90625 L 5.890625 -6.03125 C 5.628906 -5.914062 5.332031 -5.753906 5 -5.546875 C 4.675781 -5.335938 4.394531 -5.054688 4.15625 -4.703125 C 3.914062 -4.347656 3.773438 -3.894531 3.734375 -3.34375 C 3.710938 -2.863281 3.753906 -2.4375 3.859375 -2.0625 C 3.960938 -1.695312 4.125 -1.398438 4.34375 -1.171875 C 4.5625 -0.929688 4.820312 -0.785156 5.125 -0.734375 C 5.425781 -0.679688 5.679688 -0.738281 5.890625 -0.90625 Z M 5.890625 -0.90625 "/></g></g></g><g fill="#fa440a" fill-opacity="1"><g transform="translate(64.17418, 20.294081)"><g><path d="M 6.875 -10.21875 C 7.300781 -10.195312 7.664062 -10.039062 7.96875 -9.75 C 8.28125 -9.457031 8.4375 -9.097656 8.4375 -8.671875 C 8.4375 -8.242188 8.28125 -7.875 7.96875 -7.5625 C 7.664062 -7.257812 7.300781 -7.109375 6.875 -7.109375 C 6.457031 -7.109375 6.09375 -7.257812 5.78125 -7.5625 C 5.476562 -7.875 5.328125 -8.242188 5.328125 -8.671875 C 5.328125 -8.804688 5.335938 -8.90625 5.359375 -8.96875 C 5.378906 -9.039062 5.390625 -9.113281 5.390625 -9.1875 C 5.390625 -9.394531 5.285156 -9.5 5.078125 -9.5 C 4.890625 -9.5 4.632812 -9.414062 4.3125 -9.25 L 4.3125 -1.09375 C 4.3125 -0.851562 4.390625 -0.640625 4.546875 -0.453125 C 4.710938 -0.273438 4.910156 -0.164062 5.140625 -0.125 L 5.140625 0 L 0.5 0 L 0.5 -0.125 C 0.726562 -0.164062 0.921875 -0.273438 1.078125 -0.453125 C 1.234375 -0.640625 1.3125 -0.851562 1.3125 -1.09375 L 1.3125 -8.21875 C 1.3125 -8.46875 1.234375 -8.679688 1.078125 -8.859375 C 0.921875 -9.046875 0.726562 -9.15625 0.5 -9.1875 L 0.5 -9.3125 L 3.921875 -9.8125 C 3.929688 -9.8125 3.9375 -9.8125 3.9375 -9.8125 C 3.945312 -9.8125 3.960938 -9.8125 3.984375 -9.8125 C 4.085938 -9.8125 4.164062 -9.773438 4.21875 -9.703125 C 4.28125 -9.640625 4.3125 -9.5625 4.3125 -9.46875 L 4.3125 -9.375 C 4.675781 -9.5625 5.097656 -9.753906 5.578125 -9.953125 C 6.054688 -10.148438 6.488281 -10.238281 6.875 -10.21875 Z M 6.875 -10.21875 "/></g></g></g><g fill="#3d3d3d" fill-opacity="1"><g transform="translate(71.971762, 20.294081)"><g><path d="M 0.59375 -13.984375 L 10.375 -13.984375 L 10.375 -10.21875 L 10.25 -10.21875 C 10.082031 -10.914062 9.765625 -11.535156 9.296875 -12.078125 C 8.835938 -12.628906 8.28125 -13.066406 7.625 -13.390625 C 6.976562 -13.710938 6.273438 -13.875 5.515625 -13.875 L 5.3125 -13.875 L 5.3125 -7.046875 C 6.050781 -7.046875 6.695312 -7.269531 7.25 -7.71875 C 7.8125 -8.164062 8.179688 -8.722656 8.359375 -9.390625 L 8.46875 -9.390625 L 8.46875 -4.59375 L 8.359375 -4.59375 C 8.179688 -5.257812 7.8125 -5.816406 7.25 -6.265625 C 6.695312 -6.710938 6.050781 -6.9375 5.3125 -6.9375 L 5.3125 -1.3125 C 5.3125 -0.976562 5.429688 -0.695312 5.671875 -0.46875 C 5.910156 -0.238281 6.195312 -0.125 6.53125 -0.125 L 6.53125 0 L 0.59375 0 L 0.59375 -0.125 C 0.925781 -0.125 1.207031 -0.238281 1.4375 -0.46875 C 1.675781 -0.695312 1.796875 -0.976562 1.796875 -1.3125 L 1.796875 -12.671875 C 1.796875 -13.003906 1.675781 -13.285156 1.4375 -13.515625 C 1.207031 -13.753906 0.925781 -13.875 0.59375 -13.875 Z M 0.59375 -13.984375 "/></g></g></g><g fill="#3d3d3d" fill-opacity="1"><g transform="translate(82.004215, 20.294081)"><g><path d="M 5.25 -10.015625 C 6.09375 -10.015625 6.859375 -9.785156 7.546875 -9.328125 C 8.234375 -8.878906 8.78125 -8.269531 9.1875 -7.5 C 9.601562 -6.738281 9.8125 -5.890625 9.8125 -4.953125 C 9.8125 -4.023438 9.601562 -3.175781 9.1875 -2.40625 C 8.78125 -1.644531 8.234375 -1.035156 7.546875 -0.578125 C 6.859375 -0.128906 6.09375 0.09375 5.25 0.09375 C 4.414062 0.09375 3.65625 -0.128906 2.96875 -0.578125 C 2.28125 -1.035156 1.726562 -1.644531 1.3125 -2.40625 C 0.90625 -3.175781 0.703125 -4.023438 0.703125 -4.953125 C 0.703125 -5.890625 0.90625 -6.738281 1.3125 -7.5 C 1.726562 -8.269531 2.28125 -8.878906 2.96875 -9.328125 C 3.65625 -9.785156 4.414062 -10.015625 5.25 -10.015625 Z M 5.25 -0.015625 C 6.28125 -0.015625 6.796875 -1.660156 6.796875 -4.953125 C 6.796875 -8.242188 6.28125 -9.890625 5.25 -9.890625 C 4.21875 -9.890625 3.703125 -8.242188 3.703125 -4.953125 C 3.703125 -1.660156 4.21875 -0.015625 5.25 -0.015625 Z M 5.25 -0.015625 "/></g></g></g><g fill="#3d3d3d" fill-opacity="1"><g transform="translate(91.377152, 20.294081)"><g><path d="M 5.25 -10.015625 C 6.09375 -10.015625 6.859375 -9.785156 7.546875 -9.328125 C 8.234375 -8.878906 8.78125 -8.269531 9.1875 -7.5 C 9.601562 -6.738281 9.8125 -5.890625 9.8125 -4.953125 C 9.8125 -4.023438 9.601562 -3.175781 9.1875 -2.40625 C 8.78125 -1.644531 8.234375 -1.035156 7.546875 -0.578125 C 6.859375 -0.128906 6.09375 0.09375 5.25 0.09375 C 4.414062 0.09375 3.65625 -0.128906 2.96875 -0.578125 C 2.28125 -1.035156 1.726562 -1.644531 1.3125 -2.40625 C 0.90625 -3.175781 0.703125 -4.023438 0.703125 -4.953125 C 0.703125 -5.890625 0.90625 -6.738281 1.3125 -7.5 C 1.726562 -8.269531 2.28125 -8.878906 2.96875 -9.328125 C 3.65625 -9.785156 4.414062 -10.015625 5.25 -10.015625 Z M 5.25 -0.015625 C 6.28125 -0.015625 6.796875 -1.660156 6.796875 -4.953125 C 6.796875 -8.242188 6.28125 -9.890625 5.25 -9.890625 C 4.21875 -9.890625 3.703125 -8.242188 3.703125 -4.953125 C 3.703125 -1.660156 4.21875 -0.015625 5.25 -0.015625 Z M 5.25 -0.015625 "/></g></g></g><g clip-path="url(#75e9b875ff)"><g fill="#3d3d3d" fill-opacity="1"><g transform="translate(100.750089, 20.294081)"><g><path d="M 9.734375 -1.5 C 9.734375 -1.257812 9.8125 -1.046875 9.96875 -0.859375 C 10.132812 -0.671875 10.328125 -0.554688 10.546875 -0.515625 L 10.546875 -0.40625 L 7.140625 0.09375 C 7.117188 0.09375 7.101562 0.09375 7.09375 0.09375 C 7.09375 0.09375 7.085938 0.09375 7.078125 0.09375 C 6.984375 0.09375 6.898438 0.0546875 6.828125 -0.015625 C 6.765625 -0.0859375 6.734375 -0.171875 6.734375 -0.265625 L 6.734375 -0.734375 C 6.359375 -0.441406 5.953125 -0.21875 5.515625 -0.0625 C 5.085938 0.0820312 4.640625 0.128906 4.171875 0.078125 C 3.503906 0.015625 2.90625 -0.238281 2.375 -0.6875 C 1.851562 -1.132812 1.441406 -1.707031 1.140625 -2.40625 C 0.847656 -3.101562 0.703125 -3.867188 0.703125 -4.703125 C 0.703125 -5.484375 0.820312 -6.195312 1.0625 -6.84375 C 1.3125 -7.5 1.640625 -8.0625 2.046875 -8.53125 C 2.460938 -9.007812 2.925781 -9.375 3.4375 -9.625 C 3.945312 -9.882812 4.457031 -10.015625 4.96875 -10.015625 C 5.320312 -10.015625 5.65625 -9.96875 5.96875 -9.875 C 6.28125 -9.789062 6.535156 -9.695312 6.734375 -9.59375 L 6.734375 -12.390625 C 6.734375 -12.628906 6.648438 -12.84375 6.484375 -13.03125 C 6.328125 -13.21875 6.140625 -13.332031 5.921875 -13.375 L 5.921875 -13.484375 L 9.328125 -13.984375 C 9.347656 -13.984375 9.359375 -13.984375 9.359375 -13.984375 C 9.367188 -13.984375 9.378906 -13.984375 9.390625 -13.984375 C 9.617188 -13.984375 9.734375 -13.863281 9.734375 -13.625 Z M 6.078125 -0.734375 C 6.273438 -0.734375 6.492188 -0.789062 6.734375 -0.90625 L 6.734375 -9.453125 C 6.492188 -9.554688 6.273438 -9.609375 6.078125 -9.609375 C 5.640625 -9.609375 5.238281 -9.40625 4.875 -9 C 4.519531 -8.601562 4.226562 -8.070312 4 -7.40625 C 3.78125 -6.75 3.671875 -6.003906 3.671875 -5.171875 C 3.671875 -4.359375 3.78125 -3.613281 4 -2.9375 C 4.226562 -2.269531 4.519531 -1.734375 4.875 -1.328125 C 5.238281 -0.929688 5.640625 -0.734375 6.078125 -0.734375 Z M 6.078125 -0.734375 "/></g></g></g></g></svg>